{
	"asset":{
		"generator":"Khronos glTF Blender I/O v3.6.27",
		"version":"2.0"
	},
	"scene":0,
	"scenes":[
		{
			"name":"Scene",
			"nodes":[
				46
			]
		}
	],
	"nodes":[
		{
			"mesh":0,
			"name":"Cubo.001",
			"rotation":[
				-0.05327277630567551,
				0,
				0,
				0.9985799789428711
			],
			"scale":[
				0.5889033675193787,
				0.5889033675193787,
				0.5889033675193787
			],
			"translation":[
				0,
				1.4859187602996826,
				0.0698767751455307
			]
		},
		{
			"name":"Indice.L.001",
			"rotation":[
				0.02613004297018051,
				-0.0013634879142045975,
				0.04041792079806328,
				0.9988402128219604
			],
			"scale":[
				0.9999999403953552,
				0.9999998807907104,
				0.9999998807907104
			],
			"translation":[
				6.891787052154541e-08,
				0.0999225378036499,
				0
			]
		},
		{
			"children":[
				1
			],
			"name":"Indice.L.002",
			"rotation":[
				0.05157618969678879,
				0.001096959225833416,
				-0.004636302590370178,
				0.9986577033996582
			],
			"translation":[
				-1.1734664440155029e-07,
				0.12325335294008255,
				-1.1175870895385742e-07
			]
		},
		{
			"children":[
				2
			],
			"name":"Indice.L",
			"rotation":[
				-0.002731661545112729,
				0.0368758924305439,
				-0.008221546187996864,
				0.9992823600769043
			],
			"scale":[
				0.9999999403953552,
				0.9999998807907104,
				0.9999999403953552
			],
			"translation":[
				-0.15924441814422607,
				0.4782465696334839,
				-0.006019311957061291
			]
		},
		{
			"name":"Indice.L.005",
			"rotation":[
				0.045294709503650665,
				-0.0009104997734539211,
				0.003446995047852397,
				0.9989672899246216
			],
			"scale":[
				1,
				0.9999998211860657,
				0.9999998807907104
			],
			"translation":[
				-2.8312206268310547e-07,
				0.11577572673559189,
				-2.9802322387695312e-08
			]
		},
		{
			"children":[
				4
			],
			"name":"Indice.L.004",
			"rotation":[
				0.051378317177295685,
				0.0005683889612555504,
				-0.001679014414548874,
				0.9986777305603027
			],
			"scale":[
				1,
				0.9999999403953552,
				1.0000001192092896
			],
			"translation":[
				-7.450580596923828e-09,
				0.1304863840341568,
				2.2351741790771484e-08
			]
		},
		{
			"children":[
				5
			],
			"name":"Indice.L.003",
			"rotation":[
				-0.011874757707118988,
				0.03614267334342003,
				0.0036824222188442945,
				0.9992693662643433
			],
			"scale":[
				1,
				1,
				0.9999999403953552
			],
			"translation":[
				-0.05281172692775726,
				0.48608142137527466,
				-0.000994708389043808
			]
		},
		{
			"name":"Indice.L.008",
			"rotation":[
				0.035088181495666504,
				-0.000924605003092438,
				0.0025080612394958735,
				0.9993806481361389
			],
			"scale":[
				0.9999999403953552,
				0.9999999403953552,
				0.9999998211860657
			],
			"translation":[
				-1.4156103134155273e-07,
				0.10728462040424347,
				-1.4901161193847656e-08
			]
		},
		{
			"children":[
				7
			],
			"name":"Indice.L.007",
			"rotation":[
				0.05641749128699303,
				0.0005680958856828511,
				-0.0015224399976432323,
				0.998405933380127
			],
			"scale":[
				1.0000001192092896,
				1.0000001192092896,
				1
			],
			"translation":[
				1.210719347000122e-07,
				0.11445949971675873,
				-1.4901161193847656e-08
			]
		},
		{
			"children":[
				8
			],
			"name":"Indice.L.006",
			"rotation":[
				-0.01766311749815941,
				0.036121588200330734,
				0.0039289859123528,
				0.9991835355758667
			],
			"scale":[
				1.0000001192092896,
				1,
				1
			],
			"translation":[
				0.052527591586112976,
				0.48334863781929016,
				0.004018716514110565
			]
		},
		{
			"name":"Indice.L.011",
			"rotation":[
				0.07587773352861404,
				-0.0007113252650015056,
				-0.003077104454860091,
				0.9971121549606323
			],
			"scale":[
				0.9999999403953552,
				1,
				1
			],
			"translation":[
				4.470348358154297e-08,
				0.11428821831941605,
				-4.470348358154297e-08
			]
		},
		{
			"children":[
				10
			],
			"name":"Indice.L.010",
			"rotation":[
				0.053800761699676514,
				0.00313957454636693,
				0.0519583560526371,
				0.9971940517425537
			],
			"scale":[
				1.0000001192092896,
				1.0000001192092896,
				1.0000001192092896
			],
			"translation":[
				-1.0989606380462646e-07,
				0.10475759208202362,
				-2.9802322387695312e-08
			]
		},
		{
			"children":[
				11
			],
			"name":"Indice.L.009",
			"rotation":[
				-0.03297746554017067,
				0.03467614948749542,
				-0.04871692135930061,
				0.9976656436920166
			],
			"scale":[
				0.9999999403953552,
				1,
				1
			],
			"translation":[
				0.15267688035964966,
				0.4608597457408905,
				0.012057013809680939
			]
		},
		{
			"name":"Indice.L.014",
			"rotation":[
				0.03685646131634712,
				-0.03665797784924507,
				0.054735809564590454,
				0.9971468448638916
			],
			"scale":[
				1,
				1,
				0.9999999403953552
			],
			"translation":[
				-3.91155481338501e-08,
				0.13991449773311615,
				-4.563480615615845e-08
			]
		},
		{
			"children":[
				13
			],
			"name":"Indice.L.013",
			"rotation":[
				-0.003704467322677374,
				-0.09202641248703003,
				-0.23408059775829315,
				0.9678449034690857
			],
			"scale":[
				1,
				0.9999999403953552,
				1.0000001192092896
			],
			"translation":[
				-9.825453162193298e-08,
				0.12832675874233246,
				9.778887033462524e-08
			]
		},
		{
			"children":[
				14
			],
			"name":"Indice.L.012",
			"rotation":[
				0.441899836063385,
				0.11185877025127411,
				0.5047590136528015,
				0.7330965399742126
			],
			"scale":[
				1,
				1.0000001192092896,
				1
			],
			"translation":[
				-0.16608768701553345,
				0.2592642605304718,
				-0.00903451070189476
			]
		},
		{
			"children":[
				3,
				6,
				9,
				12,
				15
			],
			"name":"Bone.006.L",
			"rotation":[
				0.06321482360363007,
				-0.00870650913566351,
				0.003961963579058647,
				0.9979541301727295
			],
			"scale":[
				0.9999998807907104,
				0.9999998807907104,
				1
			],
			"translation":[
				1.1362135410308838e-07,
				0.9585263133049011,
				-7.450580596923828e-08
			]
		},
		{
			"children":[
				16
			],
			"name":"Bone.005.L",
			"rotation":[
				0.13181862235069275,
				0.00778353214263916,
				-0.03246396780014038,
				0.9907115697860718
			],
			"scale":[
				0.9999999403953552,
				0.9999999403953552,
				0.9999998807907104
			],
			"translation":[
				0,
				0.8304463624954224,
				5.21540641784668e-08
			]
		},
		{
			"children":[
				17
			],
			"name":"Bone.004.L",
			"rotation":[
				-0.025429846718907356,
				0.0032871190924197435,
				-0.1327773928642273,
				0.990814208984375
			],
			"scale":[
				1,
				1.0000001192092896,
				1
			],
			"translation":[
				7.450580596923828e-08,
				1.0692949295043945,
				1.4901161193847656e-08
			]
		},
		{
			"children":[
				18
			],
			"name":"Bone.003.L",
			"rotation":[
				-0.07261046022176743,
				0.03774399682879448,
				-0.8332923650741577,
				0.5467421412467957
			],
			"translation":[
				3.552713678800501e-15,
				0.978378176689148,
				7.450580596923828e-09
			]
		},
		{
			"name":"Bone.008",
			"rotation":[
				-0.1155427023768425,
				-3.353126458406023e-15,
				-2.7547528702598356e-08,
				0.9933025240898132
			],
			"translation":[
				-3.552713678800501e-15,
				0.3762509524822235,
				5.960464477539063e-08
			]
		},
		{
			"children":[
				20
			],
			"name":"Bone.007",
			"rotation":[
				0.2971448600292206,
				-1.395289591331339e-14,
				7.084485531549944e-08,
				0.9548323750495911
			],
			"translation":[
				3.552713678800501e-15,
				0.978378176689148,
				7.450580596923828e-09
			]
		},
		{
			"name":"Indice.R.001",
			"rotation":[
				0.026130057871341705,
				0.0013634843053296208,
				-0.040417980402708054,
				0.9988402128219604
			],
			"scale":[
				0.9999998211860657,
				0.9999998211860657,
				0.9999998807907104
			],
			"translation":[
				1.862645149230957e-07,
				0.09992215037345886,
				-6.705522537231445e-08
			]
		},
		{
			"children":[
				22
			],
			"name":"Indice.R.002",
			"rotation":[
				0.05157618224620819,
				-0.0010969480499625206,
				0.00463632307946682,
				0.9986577033996582
			],
			"scale":[
				1.0000001192092896,
				1,
				1
			],
			"translation":[
				4.6566128730773926e-08,
				0.1232534795999527,
				-7.078051567077637e-08
			]
		},
		{
			"children":[
				23
			],
			"name":"Indice.R",
			"rotation":[
				-0.0027316524647176266,
				-0.036875877529382706,
				0.00822156760841608,
				0.9992823004722595
			],
			"scale":[
				0.9999998807907104,
				0.9999998807907104,
				1
			],
			"translation":[
				0.15924449265003204,
				0.47824612259864807,
				-0.006019311957061291
			]
		},
		{
			"name":"Indice.R.005",
			"rotation":[
				0.04529470205307007,
				0.0009104812052100897,
				-0.00344703602604568,
				0.9989672899246216
			],
			"scale":[
				0.9999998807907104,
				0.9999999403953552,
				0.9999998807907104
			],
			"translation":[
				-1.6391277313232422e-07,
				0.11577566713094711,
				-2.9802322387695312e-08
			]
		},
		{
			"children":[
				25
			],
			"name":"Indice.R.004",
			"rotation":[
				0.051378339529037476,
				-0.0005683964118361473,
				0.0016790556255728006,
				0.9986777305603027
			],
			"scale":[
				0.9999999403953552,
				0.9999999403953552,
				1
			],
			"translation":[
				5.587935447692871e-09,
				0.13048632442951202,
				1.1920928955078125e-07
			]
		},
		{
			"children":[
				26
			],
			"name":"Indice.R.003",
			"rotation":[
				-0.011874757707118988,
				-0.036142654716968536,
				-0.003682403825223446,
				0.9992693662643433
			],
			"scale":[
				0.9999998807907104,
				1,
				0.9999999403953552
			],
			"translation":[
				0.05281179025769234,
				0.48608097434043884,
				-0.000994764268398285
			]
		},
		{
			"name":"Indice.R.008",
			"rotation":[
				0.03508815914392471,
				0.0009246086701750755,
				-0.0025080996565520763,
				0.9993806481361389
			],
			"scale":[
				1,
				1.000000238418579,
				0.9999999403953552
			],
			"translation":[
				-5.21540641784668e-08,
				0.10728459060192108,
				8.940696716308594e-08
			]
		},
		{
			"children":[
				28
			],
			"name":"Indice.R.007",
			"rotation":[
				0.05641750991344452,
				-0.0005680884351022542,
				0.0015224067028611898,
				0.9984059929847717
			],
			"scale":[
				1,
				1,
				1.0000001192092896
			],
			"translation":[
				-5.587935447692871e-09,
				0.11445916444063187,
				8.195638656616211e-08
			]
		},
		{
			"children":[
				29
			],
			"name":"Indice.R.006",
			"rotation":[
				-0.01766311004757881,
				-0.03612159192562103,
				-0.0039289724081754684,
				0.9991835951805115
			],
			"translation":[
				-0.052527718245983124,
				0.48334822058677673,
				0.004018671810626984
			]
		},
		{
			"name":"Indice.R.011",
			"rotation":[
				0.07587777078151703,
				0.0007112823659554124,
				0.0030771028250455856,
				0.9971121549606323
			],
			"scale":[
				0.9999999403953552,
				0.9999998807907104,
				0.9999998807907104
			],
			"translation":[
				6.705522537231445e-08,
				0.1142883375287056,
				7.450580596923828e-08
			]
		},
		{
			"children":[
				31
			],
			"name":"Indice.R.010",
			"rotation":[
				0.053800735622644424,
				-0.003139545675367117,
				-0.051958341151475906,
				0.9971940517425537
			],
			"scale":[
				1,
				1.0000001192092896,
				1.0000001192092896
			],
			"translation":[
				-9.685754776000977e-08,
				0.10475748032331467,
				-4.470348358154297e-08
			]
		},
		{
			"children":[
				32
			],
			"name":"Indice.R.009",
			"rotation":[
				-0.032977428287267685,
				-0.03467615693807602,
				0.048716891556978226,
				0.9976656436920166
			],
			"scale":[
				0.9999998807907104,
				0.9999998807907104,
				1
			],
			"translation":[
				-0.1526769995689392,
				0.46085935831069946,
				0.012056909501552582
			]
		},
		{
			"name":"Indice.R.014",
			"rotation":[
				0.03685638681054115,
				0.036657992750406265,
				-0.054735805839300156,
				0.9971468448638916
			],
			"scale":[
				1,
				0.9999999403953552,
				1
			],
			"translation":[
				-4.0046870708465576e-08,
				0.139914408326149,
				2.7939677238464355e-09
			]
		},
		{
			"children":[
				34
			],
			"name":"Indice.R.013",
			"rotation":[
				-0.003704509697854519,
				0.09202636778354645,
				0.23408056795597076,
				0.9678449034690857
			],
			"scale":[
				0.9999999403953552,
				0.9999998807907104,
				1.0000001192092896
			],
			"translation":[
				-1.0477378964424133e-08,
				0.1283266842365265,
				-1.150183379650116e-07
			]
		},
		{
			"children":[
				35
			],
			"name":"Indice.R.012",
			"rotation":[
				0.4418998658657074,
				-0.11185874789953232,
				-0.5047590732574463,
				0.7330964803695679
			],
			"translation":[
				0.16608792543411255,
				0.25926390290260315,
				-0.009034555405378342
			]
		},
		{
			"children":[
				24,
				27,
				30,
				33,
				36
			],
			"name":"Bone.006.R",
			"rotation":[
				0.06321483850479126,
				0.008706500753760338,
				-0.003962000831961632,
				0.9979541301727295
			],
			"scale":[
				0.9999998807907104,
				0.9999998807907104,
				1
			],
			"translation":[
				-4.284083843231201e-08,
				0.9585264325141907,
				3.725290298461914e-09
			]
		},
		{
			"children":[
				37
			],
			"name":"Bone.005.R",
			"rotation":[
				0.13181859254837036,
				-0.007783564738929272,
				0.03246396780014038,
				0.990711510181427
			],
			"scale":[
				1,
				1.0000001192092896,
				1
			],
			"translation":[
				9.685754776000977e-08,
				0.8304465413093567,
				3.725290298461914e-08
			]
		},
		{
			"children":[
				38
			],
			"name":"Bone.004.R",
			"rotation":[
				-0.025429891422390938,
				-0.0032870785798877478,
				0.13277748227119446,
				0.9908141493797302
			],
			"scale":[
				0.9999999403953552,
				1.0000001192092896,
				0.9999998807907104
			],
			"translation":[
				-9.685754776000977e-08,
				1.069295048713684,
				5.960464477539063e-08
			]
		},
		{
			"children":[
				39
			],
			"name":"Bone.003.R",
			"rotation":[
				-0.07261066138744354,
				-0.03774412348866463,
				0.8332923054695129,
				0.5467422008514404
			],
			"scale":[
				0.9999998211860657,
				0.9999998807907104,
				1
			],
			"translation":[
				3.552713678800501e-15,
				0.978378176689148,
				7.450580596923828e-09
			]
		},
		{
			"name":"Costilla.L",
			"rotation":[
				0.5656946897506714,
				-0.42886120080947876,
				-0.5407184958457947,
				0.451321542263031
			],
			"scale":[
				1,
				0.9999998211860657,
				0.9999998807907104
			],
			"translation":[
				0.6334858536720276,
				0.09974639117717743,
				-0.36702173948287964
			]
		},
		{
			"name":"Costilla.R",
			"rotation":[
				0.5656945109367371,
				0.4288610517978668,
				0.5407187342643738,
				0.45132169127464294
			],
			"scale":[
				1,
				0.9999998211860657,
				0.9999998211860657
			],
			"translation":[
				-0.6334854960441589,
				0.09974639117717743,
				-0.3670220375061035
			]
		},
		{
			"children":[
				19,
				21,
				40,
				41,
				42
			],
			"name":"Bone.002",
			"rotation":[
				-0.0909629836678505,
				1.794900254088131e-14,
				-2.168726709328439e-08,
				0.9958542585372925
			],
			"translation":[
				-8.881784197001252e-16,
				0.8318901658058167,
				-3.725290298461914e-09
			]
		},
		{
			"children":[
				43
			],
			"name":"Bone.001",
			"rotation":[
				-0.1596720814704895,
				1.1767983920663028e-07,
				-1.9034393616834677e-08,
				0.9871701002120972
			],
			"scale":[
				1,
				1.0000001192092896,
				1
			],
			"translation":[
				0,
				0.9662477374076843,
				-5.587935447692871e-09
			]
		},
		{
			"children":[
				44
			],
			"name":"Bone",
			"rotation":[
				0.12737813591957092,
				0,
				0,
				0.9918542504310608
			],
			"scale":[
				1,
				0.9999999403953552,
				0.9999999403953552
			],
			"translation":[
				-4.5849727570157484e-08,
				-1.858508586883545,
				-0.057332009077072144
			]
		},
		{
			"children":[
				0,
				45
			],
			"name":"Esqueleto",
			"translation":[
				0,
				0.6204879283905029,
				-0.203097403049469
			]
		}
	],
	"animations":[
		{
			"channels":[
				{
					"sampler":0,
					"target":{
						"node":45,
						"path":"translation"
					}
				},
				{
					"sampler":1,
					"target":{
						"node":45,
						"path":"rotation"
					}
				},
				{
					"sampler":2,
					"target":{
						"node":45,
						"path":"scale"
					}
				},
				{
					"sampler":3,
					"target":{
						"node":44,
						"path":"translation"
					}
				},
				{
					"sampler":4,
					"target":{
						"node":44,
						"path":"rotation"
					}
				},
				{
					"sampler":5,
					"target":{
						"node":44,
						"path":"scale"
					}
				},
				{
					"sampler":6,
					"target":{
						"node":43,
						"path":"translation"
					}
				},
				{
					"sampler":7,
					"target":{
						"node":43,
						"path":"rotation"
					}
				},
				{
					"sampler":8,
					"target":{
						"node":43,
						"path":"scale"
					}
				},
				{
					"sampler":9,
					"target":{
						"node":19,
						"path":"translation"
					}
				},
				{
					"sampler":10,
					"target":{
						"node":19,
						"path":"rotation"
					}
				},
				{
					"sampler":11,
					"target":{
						"node":19,
						"path":"scale"
					}
				},
				{
					"sampler":12,
					"target":{
						"node":18,
						"path":"translation"
					}
				},
				{
					"sampler":13,
					"target":{
						"node":18,
						"path":"rotation"
					}
				},
				{
					"sampler":14,
					"target":{
						"node":18,
						"path":"scale"
					}
				},
				{
					"sampler":15,
					"target":{
						"node":17,
						"path":"translation"
					}
				},
				{
					"sampler":16,
					"target":{
						"node":17,
						"path":"rotation"
					}
				},
				{
					"sampler":17,
					"target":{
						"node":17,
						"path":"scale"
					}
				},
				{
					"sampler":18,
					"target":{
						"node":16,
						"path":"translation"
					}
				},
				{
					"sampler":19,
					"target":{
						"node":16,
						"path":"rotation"
					}
				},
				{
					"sampler":20,
					"target":{
						"node":16,
						"path":"scale"
					}
				},
				{
					"sampler":21,
					"target":{
						"node":3,
						"path":"translation"
					}
				},
				{
					"sampler":22,
					"target":{
						"node":3,
						"path":"rotation"
					}
				},
				{
					"sampler":23,
					"target":{
						"node":3,
						"path":"scale"
					}
				},
				{
					"sampler":24,
					"target":{
						"node":2,
						"path":"translation"
					}
				},
				{
					"sampler":25,
					"target":{
						"node":2,
						"path":"rotation"
					}
				},
				{
					"sampler":26,
					"target":{
						"node":2,
						"path":"scale"
					}
				},
				{
					"sampler":27,
					"target":{
						"node":1,
						"path":"translation"
					}
				},
				{
					"sampler":28,
					"target":{
						"node":1,
						"path":"rotation"
					}
				},
				{
					"sampler":29,
					"target":{
						"node":1,
						"path":"scale"
					}
				},
				{
					"sampler":30,
					"target":{
						"node":6,
						"path":"translation"
					}
				},
				{
					"sampler":31,
					"target":{
						"node":6,
						"path":"rotation"
					}
				},
				{
					"sampler":32,
					"target":{
						"node":6,
						"path":"scale"
					}
				},
				{
					"sampler":33,
					"target":{
						"node":5,
						"path":"translation"
					}
				},
				{
					"sampler":34,
					"target":{
						"node":5,
						"path":"rotation"
					}
				},
				{
					"sampler":35,
					"target":{
						"node":5,
						"path":"scale"
					}
				},
				{
					"sampler":36,
					"target":{
						"node":4,
						"path":"translation"
					}
				},
				{
					"sampler":37,
					"target":{
						"node":4,
						"path":"rotation"
					}
				},
				{
					"sampler":38,
					"target":{
						"node":4,
						"path":"scale"
					}
				},
				{
					"sampler":39,
					"target":{
						"node":9,
						"path":"translation"
					}
				},
				{
					"sampler":40,
					"target":{
						"node":9,
						"path":"rotation"
					}
				},
				{
					"sampler":41,
					"target":{
						"node":9,
						"path":"scale"
					}
				},
				{
					"sampler":42,
					"target":{
						"node":8,
						"path":"translation"
					}
				},
				{
					"sampler":43,
					"target":{
						"node":8,
						"path":"rotation"
					}
				},
				{
					"sampler":44,
					"target":{
						"node":8,
						"path":"scale"
					}
				},
				{
					"sampler":45,
					"target":{
						"node":7,
						"path":"translation"
					}
				},
				{
					"sampler":46,
					"target":{
						"node":7,
						"path":"rotation"
					}
				},
				{
					"sampler":47,
					"target":{
						"node":7,
						"path":"scale"
					}
				},
				{
					"sampler":48,
					"target":{
						"node":12,
						"path":"translation"
					}
				},
				{
					"sampler":49,
					"target":{
						"node":12,
						"path":"rotation"
					}
				},
				{
					"sampler":50,
					"target":{
						"node":12,
						"path":"scale"
					}
				},
				{
					"sampler":51,
					"target":{
						"node":11,
						"path":"translation"
					}
				},
				{
					"sampler":52,
					"target":{
						"node":11,
						"path":"rotation"
					}
				},
				{
					"sampler":53,
					"target":{
						"node":11,
						"path":"scale"
					}
				},
				{
					"sampler":54,
					"target":{
						"node":10,
						"path":"translation"
					}
				},
				{
					"sampler":55,
					"target":{
						"node":10,
						"path":"rotation"
					}
				},
				{
					"sampler":56,
					"target":{
						"node":10,
						"path":"scale"
					}
				},
				{
					"sampler":57,
					"target":{
						"node":15,
						"path":"translation"
					}
				},
				{
					"sampler":58,
					"target":{
						"node":15,
						"path":"rotation"
					}
				},
				{
					"sampler":59,
					"target":{
						"node":15,
						"path":"scale"
					}
				},
				{
					"sampler":60,
					"target":{
						"node":14,
						"path":"translation"
					}
				},
				{
					"sampler":61,
					"target":{
						"node":14,
						"path":"rotation"
					}
				},
				{
					"sampler":62,
					"target":{
						"node":14,
						"path":"scale"
					}
				},
				{
					"sampler":63,
					"target":{
						"node":13,
						"path":"translation"
					}
				},
				{
					"sampler":64,
					"target":{
						"node":13,
						"path":"rotation"
					}
				},
				{
					"sampler":65,
					"target":{
						"node":13,
						"path":"scale"
					}
				},
				{
					"sampler":66,
					"target":{
						"node":21,
						"path":"translation"
					}
				},
				{
					"sampler":67,
					"target":{
						"node":21,
						"path":"rotation"
					}
				},
				{
					"sampler":68,
					"target":{
						"node":21,
						"path":"scale"
					}
				},
				{
					"sampler":69,
					"target":{
						"node":20,
						"path":"translation"
					}
				},
				{
					"sampler":70,
					"target":{
						"node":20,
						"path":"rotation"
					}
				},
				{
					"sampler":71,
					"target":{
						"node":20,
						"path":"scale"
					}
				},
				{
					"sampler":72,
					"target":{
						"node":40,
						"path":"translation"
					}
				},
				{
					"sampler":73,
					"target":{
						"node":40,
						"path":"rotation"
					}
				},
				{
					"sampler":74,
					"target":{
						"node":40,
						"path":"scale"
					}
				},
				{
					"sampler":75,
					"target":{
						"node":39,
						"path":"translation"
					}
				},
				{
					"sampler":76,
					"target":{
						"node":39,
						"path":"rotation"
					}
				},
				{
					"sampler":77,
					"target":{
						"node":39,
						"path":"scale"
					}
				},
				{
					"sampler":78,
					"target":{
						"node":38,
						"path":"translation"
					}
				},
				{
					"sampler":79,
					"target":{
						"node":38,
						"path":"rotation"
					}
				},
				{
					"sampler":80,
					"target":{
						"node":38,
						"path":"scale"
					}
				},
				{
					"sampler":81,
					"target":{
						"node":37,
						"path":"translation"
					}
				},
				{
					"sampler":82,
					"target":{
						"node":37,
						"path":"rotation"
					}
				},
				{
					"sampler":83,
					"target":{
						"node":37,
						"path":"scale"
					}
				},
				{
					"sampler":84,
					"target":{
						"node":24,
						"path":"translation"
					}
				},
				{
					"sampler":85,
					"target":{
						"node":24,
						"path":"rotation"
					}
				},
				{
					"sampler":86,
					"target":{
						"node":24,
						"path":"scale"
					}
				},
				{
					"sampler":87,
					"target":{
						"node":23,
						"path":"translation"
					}
				},
				{
					"sampler":88,
					"target":{
						"node":23,
						"path":"rotation"
					}
				},
				{
					"sampler":89,
					"target":{
						"node":23,
						"path":"scale"
					}
				},
				{
					"sampler":90,
					"target":{
						"node":22,
						"path":"translation"
					}
				},
				{
					"sampler":91,
					"target":{
						"node":22,
						"path":"rotation"
					}
				},
				{
					"sampler":92,
					"target":{
						"node":22,
						"path":"scale"
					}
				},
				{
					"sampler":93,
					"target":{
						"node":27,
						"path":"translation"
					}
				},
				{
					"sampler":94,
					"target":{
						"node":27,
						"path":"rotation"
					}
				},
				{
					"sampler":95,
					"target":{
						"node":27,
						"path":"scale"
					}
				},
				{
					"sampler":96,
					"target":{
						"node":26,
						"path":"translation"
					}
				},
				{
					"sampler":97,
					"target":{
						"node":26,
						"path":"rotation"
					}
				},
				{
					"sampler":98,
					"target":{
						"node":26,
						"path":"scale"
					}
				},
				{
					"sampler":99,
					"target":{
						"node":25,
						"path":"translation"
					}
				},
				{
					"sampler":100,
					"target":{
						"node":25,
						"path":"rotation"
					}
				},
				{
					"sampler":101,
					"target":{
						"node":25,
						"path":"scale"
					}
				},
				{
					"sampler":102,
					"target":{
						"node":30,
						"path":"translation"
					}
				},
				{
					"sampler":103,
					"target":{
						"node":30,
						"path":"rotation"
					}
				},
				{
					"sampler":104,
					"target":{
						"node":30,
						"path":"scale"
					}
				},
				{
					"sampler":105,
					"target":{
						"node":29,
						"path":"translation"
					}
				},
				{
					"sampler":106,
					"target":{
						"node":29,
						"path":"rotation"
					}
				},
				{
					"sampler":107,
					"target":{
						"node":29,
						"path":"scale"
					}
				},
				{
					"sampler":108,
					"target":{
						"node":28,
						"path":"translation"
					}
				},
				{
					"sampler":109,
					"target":{
						"node":28,
						"path":"rotation"
					}
				},
				{
					"sampler":110,
					"target":{
						"node":28,
						"path":"scale"
					}
				},
				{
					"sampler":111,
					"target":{
						"node":33,
						"path":"translation"
					}
				},
				{
					"sampler":112,
					"target":{
						"node":33,
						"path":"rotation"
					}
				},
				{
					"sampler":113,
					"target":{
						"node":33,
						"path":"scale"
					}
				},
				{
					"sampler":114,
					"target":{
						"node":32,
						"path":"translation"
					}
				},
				{
					"sampler":115,
					"target":{
						"node":32,
						"path":"rotation"
					}
				},
				{
					"sampler":116,
					"target":{
						"node":32,
						"path":"scale"
					}
				},
				{
					"sampler":117,
					"target":{
						"node":31,
						"path":"translation"
					}
				},
				{
					"sampler":118,
					"target":{
						"node":31,
						"path":"rotation"
					}
				},
				{
					"sampler":119,
					"target":{
						"node":31,
						"path":"scale"
					}
				},
				{
					"sampler":120,
					"target":{
						"node":36,
						"path":"translation"
					}
				},
				{
					"sampler":121,
					"target":{
						"node":36,
						"path":"rotation"
					}
				},
				{
					"sampler":122,
					"target":{
						"node":36,
						"path":"scale"
					}
				},
				{
					"sampler":123,
					"target":{
						"node":35,
						"path":"translation"
					}
				},
				{
					"sampler":124,
					"target":{
						"node":35,
						"path":"rotation"
					}
				},
				{
					"sampler":125,
					"target":{
						"node":35,
						"path":"scale"
					}
				},
				{
					"sampler":126,
					"target":{
						"node":34,
						"path":"translation"
					}
				},
				{
					"sampler":127,
					"target":{
						"node":34,
						"path":"rotation"
					}
				},
				{
					"sampler":128,
					"target":{
						"node":34,
						"path":"scale"
					}
				},
				{
					"sampler":129,
					"target":{
						"node":41,
						"path":"translation"
					}
				},
				{
					"sampler":130,
					"target":{
						"node":41,
						"path":"rotation"
					}
				},
				{
					"sampler":131,
					"target":{
						"node":41,
						"path":"scale"
					}
				},
				{
					"sampler":132,
					"target":{
						"node":42,
						"path":"translation"
					}
				},
				{
					"sampler":133,
					"target":{
						"node":42,
						"path":"rotation"
					}
				},
				{
					"sampler":134,
					"target":{
						"node":42,
						"path":"scale"
					}
				}
			],
			"name":"EsqueletoAction.001",
			"samplers":[
				{
					"input":4,
					"interpolation":"STEP",
					"output":5
				},
				{
					"input":4,
					"interpolation":"STEP",
					"output":6
				},
				{
					"input":4,
					"interpolation":"STEP",
					"output":7
				},
				{
					"input":4,
					"interpolation":"STEP",
					"output":8
				},
				{
					"input":4,
					"interpolation":"STEP",
					"output":9
				},
				{
					"input":4,
					"interpolation":"STEP",
					"output":10
				},
				{
					"input":4,
					"interpolation":"STEP",
					"output":11
				},
				{
					"input":4,
					"interpolation":"STEP",
					"output":12
				},
				{
					"input":4,
					"interpolation":"STEP",
					"output":13
				},
				{
					"input":4,
					"interpolation":"STEP",
					"output":14
				},
				{
					"input":15,
					"interpolation":"LINEAR",
					"output":16
				},
				{
					"input":4,
					"interpolation":"STEP",
					"output":17
				},
				{
					"input":4,
					"interpolation":"STEP",
					"output":18
				},
				{
					"input":15,
					"interpolation":"LINEAR",
					"output":19
				},
				{
					"input":4,
					"interpolation":"STEP",
					"output":20
				},
				{
					"input":4,
					"interpolation":"STEP",
					"output":21
				},
				{
					"input":15,
					"interpolation":"LINEAR",
					"output":22
				},
				{
					"input":4,
					"interpolation":"STEP",
					"output":23
				},
				{
					"input":4,
					"interpolation":"STEP",
					"output":24
				},
				{
					"input":15,
					"interpolation":"LINEAR",
					"output":25
				},
				{
					"input":4,
					"interpolation":"STEP",
					"output":26
				},
				{
					"input":4,
					"interpolation":"STEP",
					"output":27
				},
				{
					"input":4,
					"interpolation":"STEP",
					"output":28
				},
				{
					"input":4,
					"interpolation":"STEP",
					"output":29
				},
				{
					"input":4,
					"interpolation":"STEP",
					"output":30
				},
				{
					"input":4,
					"interpolation":"STEP",
					"output":31
				},
				{
					"input":4,
					"interpolation":"STEP",
					"output":32
				},
				{
					"input":4,
					"interpolation":"STEP",
					"output":33
				},
				{
					"input":4,
					"interpolation":"STEP",
					"output":34
				},
				{
					"input":4,
					"interpolation":"STEP",
					"output":35
				},
				{
					"input":4,
					"interpolation":"STEP",
					"output":36
				},
				{
					"input":4,
					"interpolation":"STEP",
					"output":37
				},
				{
					"input":4,
					"interpolation":"STEP",
					"output":38
				},
				{
					"input":4,
					"interpolation":"STEP",
					"output":39
				},
				{
					"input":4,
					"interpolation":"STEP",
					"output":40
				},
				{
					"input":4,
					"interpolation":"STEP",
					"output":41
				},
				{
					"input":4,
					"interpolation":"STEP",
					"output":42
				},
				{
					"input":4,
					"interpolation":"STEP",
					"output":43
				},
				{
					"input":4,
					"interpolation":"STEP",
					"output":44
				},
				{
					"input":4,
					"interpolation":"STEP",
					"output":45
				},
				{
					"input":4,
					"interpolation":"STEP",
					"output":46
				},
				{
					"input":4,
					"interpolation":"STEP",
					"output":47
				},
				{
					"input":4,
					"interpolation":"STEP",
					"output":48
				},
				{
					"input":4,
					"interpolation":"STEP",
					"output":49
				},
				{
					"input":4,
					"interpolation":"STEP",
					"output":50
				},
				{
					"input":4,
					"interpolation":"STEP",
					"output":51
				},
				{
					"input":4,
					"interpolation":"STEP",
					"output":52
				},
				{
					"input":4,
					"interpolation":"STEP",
					"output":53
				},
				{
					"input":4,
					"interpolation":"STEP",
					"output":54
				},
				{
					"input":4,
					"interpolation":"STEP",
					"output":55
				},
				{
					"input":4,
					"interpolation":"STEP",
					"output":56
				},
				{
					"input":4,
					"interpolation":"STEP",
					"output":57
				},
				{
					"input":4,
					"interpolation":"STEP",
					"output":58
				},
				{
					"input":4,
					"interpolation":"STEP",
					"output":59
				},
				{
					"input":4,
					"interpolation":"STEP",
					"output":60
				},
				{
					"input":4,
					"interpolation":"STEP",
					"output":61
				},
				{
					"input":4,
					"interpolation":"STEP",
					"output":62
				},
				{
					"input":4,
					"interpolation":"STEP",
					"output":63
				},
				{
					"input":4,
					"interpolation":"STEP",
					"output":64
				},
				{
					"input":4,
					"interpolation":"STEP",
					"output":65
				},
				{
					"input":4,
					"interpolation":"STEP",
					"output":66
				},
				{
					"input":4,
					"interpolation":"STEP",
					"output":67
				},
				{
					"input":4,
					"interpolation":"STEP",
					"output":68
				},
				{
					"input":4,
					"interpolation":"STEP",
					"output":69
				},
				{
					"input":4,
					"interpolation":"STEP",
					"output":70
				},
				{
					"input":4,
					"interpolation":"STEP",
					"output":71
				},
				{
					"input":4,
					"interpolation":"STEP",
					"output":72
				},
				{
					"input":15,
					"interpolation":"LINEAR",
					"output":73
				},
				{
					"input":4,
					"interpolation":"STEP",
					"output":74
				},
				{
					"input":4,
					"interpolation":"STEP",
					"output":75
				},
				{
					"input":4,
					"interpolation":"STEP",
					"output":76
				},
				{
					"input":4,
					"interpolation":"STEP",
					"output":77
				},
				{
					"input":4,
					"interpolation":"STEP",
					"output":78
				},
				{
					"input":15,
					"interpolation":"LINEAR",
					"output":79
				},
				{
					"input":4,
					"interpolation":"STEP",
					"output":80
				},
				{
					"input":4,
					"interpolation":"STEP",
					"output":81
				},
				{
					"input":15,
					"interpolation":"LINEAR",
					"output":82
				},
				{
					"input":4,
					"interpolation":"STEP",
					"output":83
				},
				{
					"input":4,
					"interpolation":"STEP",
					"output":84
				},
				{
					"input":15,
					"interpolation":"LINEAR",
					"output":85
				},
				{
					"input":4,
					"interpolation":"STEP",
					"output":86
				},
				{
					"input":4,
					"interpolation":"STEP",
					"output":87
				},
				{
					"input":15,
					"interpolation":"LINEAR",
					"output":88
				},
				{
					"input":4,
					"interpolation":"STEP",
					"output":89
				},
				{
					"input":4,
					"interpolation":"STEP",
					"output":90
				},
				{
					"input":15,
					"interpolation":"LINEAR",
					"output":91
				},
				{
					"input":4,
					"interpolation":"STEP",
					"output":92
				},
				{
					"input":4,
					"interpolation":"STEP",
					"output":93
				},
				{
					"input":15,
					"interpolation":"LINEAR",
					"output":94
				},
				{
					"input":4,
					"interpolation":"STEP",
					"output":95
				},
				{
					"input":4,
					"interpolation":"STEP",
					"output":96
				},
				{
					"input":15,
					"interpolation":"LINEAR",
					"output":97
				},
				{
					"input":4,
					"interpolation":"STEP",
					"output":98
				},
				{
					"input":4,
					"interpolation":"STEP",
					"output":99
				},
				{
					"input":15,
					"interpolation":"LINEAR",
					"output":100
				},
				{
					"input":4,
					"interpolation":"STEP",
					"output":101
				},
				{
					"input":4,
					"interpolation":"STEP",
					"output":102
				},
				{
					"input":15,
					"interpolation":"LINEAR",
					"output":103
				},
				{
					"input":4,
					"interpolation":"STEP",
					"output":104
				},
				{
					"input":4,
					"interpolation":"STEP",
					"output":105
				},
				{
					"input":15,
					"interpolation":"LINEAR",
					"output":106
				},
				{
					"input":4,
					"interpolation":"STEP",
					"output":107
				},
				{
					"input":4,
					"interpolation":"STEP",
					"output":108
				},
				{
					"input":15,
					"interpolation":"LINEAR",
					"output":109
				},
				{
					"input":4,
					"interpolation":"STEP",
					"output":110
				},
				{
					"input":4,
					"interpolation":"STEP",
					"output":111
				},
				{
					"input":15,
					"interpolation":"LINEAR",
					"output":112
				},
				{
					"input":4,
					"interpolation":"STEP",
					"output":113
				},
				{
					"input":4,
					"interpolation":"STEP",
					"output":114
				},
				{
					"input":15,
					"interpolation":"LINEAR",
					"output":115
				},
				{
					"input":4,
					"interpolation":"STEP",
					"output":116
				},
				{
					"input":4,
					"interpolation":"STEP",
					"output":117
				},
				{
					"input":15,
					"interpolation":"LINEAR",
					"output":118
				},
				{
					"input":4,
					"interpolation":"STEP",
					"output":119
				},
				{
					"input":4,
					"interpolation":"STEP",
					"output":120
				},
				{
					"input":15,
					"interpolation":"LINEAR",
					"output":121
				},
				{
					"input":4,
					"interpolation":"STEP",
					"output":122
				},
				{
					"input":4,
					"interpolation":"STEP",
					"output":123
				},
				{
					"input":15,
					"interpolation":"LINEAR",
					"output":124
				},
				{
					"input":4,
					"interpolation":"STEP",
					"output":125
				},
				{
					"input":4,
					"interpolation":"STEP",
					"output":126
				},
				{
					"input":15,
					"interpolation":"LINEAR",
					"output":127
				},
				{
					"input":4,
					"interpolation":"STEP",
					"output":128
				},
				{
					"input":4,
					"interpolation":"STEP",
					"output":129
				},
				{
					"input":15,
					"interpolation":"LINEAR",
					"output":130
				},
				{
					"input":4,
					"interpolation":"STEP",
					"output":131
				},
				{
					"input":4,
					"interpolation":"STEP",
					"output":132
				},
				{
					"input":15,
					"interpolation":"LINEAR",
					"output":133
				},
				{
					"input":4,
					"interpolation":"STEP",
					"output":134
				},
				{
					"input":4,
					"interpolation":"STEP",
					"output":135
				},
				{
					"input":4,
					"interpolation":"STEP",
					"output":136
				},
				{
					"input":4,
					"interpolation":"STEP",
					"output":137
				},
				{
					"input":4,
					"interpolation":"STEP",
					"output":138
				},
				{
					"input":4,
					"interpolation":"STEP",
					"output":139
				},
				{
					"input":4,
					"interpolation":"STEP",
					"output":140
				}
			]
		}
	],
	"meshes":[
		{
			"name":"Cubo.001",
			"primitives":[
				{
					"attributes":{
						"POSITION":0,
						"NORMAL":1,
						"TEXCOORD_0":2
					},
					"indices":3
				}
			]
		}
	],
	"skins":[
		{
			"inverseBindMatrices":141,
			"joints":[
				45,
				44,
				43,
				19,
				18,
				17,
				16,
				3,
				2,
				1,
				6,
				5,
				4,
				9,
				8,
				7,
				12,
				11,
				10,
				15,
				14,
				13,
				21,
				20,
				40,
				39,
				38,
				37,
				24,
				23,
				22,
				27,
				26,
				25,
				30,
				29,
				28,
				33,
				32,
				31,
				36,
				35,
				34,
				41,
				42
			],
			"name":"Esqueleto"
		}
	],
	"accessors":[
		{
			"bufferView":0,
			"componentType":5126,
			"count":2734,
			"max":[
				2.3474009037017822,
				0.7824888229370117,
				1.7409881353378296
			],
			"min":[
				-2.2136847972869873,
				-5.9788665771484375,
				-1.7243314981460571
			],
			"type":"VEC3"
		},
		{
			"bufferView":1,
			"componentType":5126,
			"count":2734,
			"type":"VEC3"
		},
		{
			"bufferView":2,
			"componentType":5126,
			"count":2734,
			"type":"VEC2"
		},
		{
			"bufferView":3,
			"componentType":5123,
			"count":4104,
			"type":"SCALAR"
		},
		{
			"bufferView":4,
			"componentType":5126,
			"count":2,
			"max":[
				3.75
			],
			"min":[
				0
			],
			"type":"SCALAR"
		},
		{
			"bufferView":5,
			"componentType":5126,
			"count":2,
			"type":"VEC3"
		},
		{
			"bufferView":6,
			"componentType":5126,
			"count":2,
			"type":"VEC4"
		},
		{
			"bufferView":7,
			"componentType":5126,
			"count":2,
			"type":"VEC3"
		},
		{
			"bufferView":8,
			"componentType":5126,
			"count":2,
			"type":"VEC3"
		},
		{
			"bufferView":9,
			"componentType":5126,
			"count":2,
			"type":"VEC4"
		},
		{
			"bufferView":10,
			"componentType":5126,
			"count":2,
			"type":"VEC3"
		},
		{
			"bufferView":11,
			"componentType":5126,
			"count":2,
			"type":"VEC3"
		},
		{
			"bufferView":12,
			"componentType":5126,
			"count":2,
			"type":"VEC4"
		},
		{
			"bufferView":13,
			"componentType":5126,
			"count":2,
			"type":"VEC3"
		},
		{
			"bufferView":14,
			"componentType":5126,
			"count":2,
			"type":"VEC3"
		},
		{
			"bufferView":15,
			"componentType":5126,
			"count":91,
			"max":[
				3.75
			],
			"min":[
				0
			],
			"type":"SCALAR"
		},
		{
			"bufferView":16,
			"componentType":5126,
			"count":91,
			"type":"VEC4"
		},
		{
			"bufferView":17,
			"componentType":5126,
			"count":2,
			"type":"VEC3"
		},
		{
			"bufferView":18,
			"componentType":5126,
			"count":2,
			"type":"VEC3"
		},
		{
			"bufferView":19,
			"componentType":5126,
			"count":91,
			"type":"VEC4"
		},
		{
			"bufferView":20,
			"componentType":5126,
			"count":2,
			"type":"VEC3"
		},
		{
			"bufferView":21,
			"componentType":5126,
			"count":2,
			"type":"VEC3"
		},
		{
			"bufferView":22,
			"componentType":5126,
			"count":91,
			"type":"VEC4"
		},
		{
			"bufferView":23,
			"componentType":5126,
			"count":2,
			"type":"VEC3"
		},
		{
			"bufferView":24,
			"componentType":5126,
			"count":2,
			"type":"VEC3"
		},
		{
			"bufferView":25,
			"componentType":5126,
			"count":91,
			"type":"VEC4"
		},
		{
			"bufferView":26,
			"componentType":5126,
			"count":2,
			"type":"VEC3"
		},
		{
			"bufferView":27,
			"componentType":5126,
			"count":2,
			"type":"VEC3"
		},
		{
			"bufferView":28,
			"componentType":5126,
			"count":2,
			"type":"VEC4"
		},
		{
			"bufferView":29,
			"componentType":5126,
			"count":2,
			"type":"VEC3"
		},
		{
			"bufferView":30,
			"componentType":5126,
			"count":2,
			"type":"VEC3"
		},
		{
			"bufferView":31,
			"componentType":5126,
			"count":2,
			"type":"VEC4"
		},
		{
			"bufferView":32,
			"componentType":5126,
			"count":2,
			"type":"VEC3"
		},
		{
			"bufferView":33,
			"componentType":5126,
			"count":2,
			"type":"VEC3"
		},
		{
			"bufferView":34,
			"componentType":5126,
			"count":2,
			"type":"VEC4"
		},
		{
			"bufferView":35,
			"componentType":5126,
			"count":2,
			"type":"VEC3"
		},
		{
			"bufferView":36,
			"componentType":5126,
			"count":2,
			"type":"VEC3"
		},
		{
			"bufferView":37,
			"componentType":5126,
			"count":2,
			"type":"VEC4"
		},
		{
			"bufferView":38,
			"componentType":5126,
			"count":2,
			"type":"VEC3"
		},
		{
			"bufferView":39,
			"componentType":5126,
			"count":2,
			"type":"VEC3"
		},
		{
			"bufferView":40,
			"componentType":5126,
			"count":2,
			"type":"VEC4"
		},
		{
			"bufferView":41,
			"componentType":5126,
			"count":2,
			"type":"VEC3"
		},
		{
			"bufferView":42,
			"componentType":5126,
			"count":2,
			"type":"VEC3"
		},
		{
			"bufferView":43,
			"componentType":5126,
			"count":2,
			"type":"VEC4"
		},
		{
			"bufferView":44,
			"componentType":5126,
			"count":2,
			"type":"VEC3"
		},
		{
			"bufferView":45,
			"componentType":5126,
			"count":2,
			"type":"VEC3"
		},
		{
			"bufferView":46,
			"componentType":5126,
			"count":2,
			"type":"VEC4"
		},
		{
			"bufferView":47,
			"componentType":5126,
			"count":2,
			"type":"VEC3"
		},
		{
			"bufferView":48,
			"componentType":5126,
			"count":2,
			"type":"VEC3"
		},
		{
			"bufferView":49,
			"componentType":5126,
			"count":2,
			"type":"VEC4"
		},
		{
			"bufferView":50,
			"componentType":5126,
			"count":2,
			"type":"VEC3"
		},
		{
			"bufferView":51,
			"componentType":5126,
			"count":2,
			"type":"VEC3"
		},
		{
			"bufferView":52,
			"componentType":5126,
			"count":2,
			"type":"VEC4"
		},
		{
			"bufferView":53,
			"componentType":5126,
			"count":2,
			"type":"VEC3"
		},
		{
			"bufferView":54,
			"componentType":5126,
			"count":2,
			"type":"VEC3"
		},
		{
			"bufferView":55,
			"componentType":5126,
			"count":2,
			"type":"VEC4"
		},
		{
			"bufferView":56,
			"componentType":5126,
			"count":2,
			"type":"VEC3"
		},
		{
			"bufferView":57,
			"componentType":5126,
			"count":2,
			"type":"VEC3"
		},
		{
			"bufferView":58,
			"componentType":5126,
			"count":2,
			"type":"VEC4"
		},
		{
			"bufferView":59,
			"componentType":5126,
			"count":2,
			"type":"VEC3"
		},
		{
			"bufferView":60,
			"componentType":5126,
			"count":2,
			"type":"VEC3"
		},
		{
			"bufferView":61,
			"componentType":5126,
			"count":2,
			"type":"VEC4"
		},
		{
			"bufferView":62,
			"componentType":5126,
			"count":2,
			"type":"VEC3"
		},
		{
			"bufferView":63,
			"componentType":5126,
			"count":2,
			"type":"VEC3"
		},
		{
			"bufferView":64,
			"componentType":5126,
			"count":2,
			"type":"VEC4"
		},
		{
			"bufferView":65,
			"componentType":5126,
			"count":2,
			"type":"VEC3"
		},
		{
			"bufferView":66,
			"componentType":5126,
			"count":2,
			"type":"VEC3"
		},
		{
			"bufferView":67,
			"componentType":5126,
			"count":2,
			"type":"VEC4"
		},
		{
			"bufferView":68,
			"componentType":5126,
			"count":2,
			"type":"VEC3"
		},
		{
			"bufferView":69,
			"componentType":5126,
			"count":2,
			"type":"VEC3"
		},
		{
			"bufferView":70,
			"componentType":5126,
			"count":2,
			"type":"VEC4"
		},
		{
			"bufferView":71,
			"componentType":5126,
			"count":2,
			"type":"VEC3"
		},
		{
			"bufferView":72,
			"componentType":5126,
			"count":2,
			"type":"VEC3"
		},
		{
			"bufferView":73,
			"componentType":5126,
			"count":91,
			"type":"VEC4"
		},
		{
			"bufferView":74,
			"componentType":5126,
			"count":2,
			"type":"VEC3"
		},
		{
			"bufferView":75,
			"componentType":5126,
			"count":2,
			"type":"VEC3"
		},
		{
			"bufferView":76,
			"componentType":5126,
			"count":2,
			"type":"VEC4"
		},
		{
			"bufferView":77,
			"componentType":5126,
			"count":2,
			"type":"VEC3"
		},
		{
			"bufferView":78,
			"componentType":5126,
			"count":2,
			"type":"VEC3"
		},
		{
			"bufferView":79,
			"componentType":5126,
			"count":91,
			"type":"VEC4"
		},
		{
			"bufferView":80,
			"componentType":5126,
			"count":2,
			"type":"VEC3"
		},
		{
			"bufferView":81,
			"componentType":5126,
			"count":2,
			"type":"VEC3"
		},
		{
			"bufferView":82,
			"componentType":5126,
			"count":91,
			"type":"VEC4"
		},
		{
			"bufferView":83,
			"componentType":5126,
			"count":2,
			"type":"VEC3"
		},
		{
			"bufferView":84,
			"componentType":5126,
			"count":2,
			"type":"VEC3"
		},
		{
			"bufferView":85,
			"componentType":5126,
			"count":91,
			"type":"VEC4"
		},
		{
			"bufferView":86,
			"componentType":5126,
			"count":2,
			"type":"VEC3"
		},
		{
			"bufferView":87,
			"componentType":5126,
			"count":2,
			"type":"VEC3"
		},
		{
			"bufferView":88,
			"componentType":5126,
			"count":91,
			"type":"VEC4"
		},
		{
			"bufferView":89,
			"componentType":5126,
			"count":2,
			"type":"VEC3"
		},
		{
			"bufferView":90,
			"componentType":5126,
			"count":2,
			"type":"VEC3"
		},
		{
			"bufferView":91,
			"componentType":5126,
			"count":91,
			"type":"VEC4"
		},
		{
			"bufferView":92,
			"componentType":5126,
			"count":2,
			"type":"VEC3"
		},
		{
			"bufferView":93,
			"componentType":5126,
			"count":2,
			"type":"VEC3"
		},
		{
			"bufferView":94,
			"componentType":5126,
			"count":91,
			"type":"VEC4"
		},
		{
			"bufferView":95,
			"componentType":5126,
			"count":2,
			"type":"VEC3"
		},
		{
			"bufferView":96,
			"componentType":5126,
			"count":2,
			"type":"VEC3"
		},
		{
			"bufferView":97,
			"componentType":5126,
			"count":91,
			"type":"VEC4"
		},
		{
			"bufferView":98,
			"componentType":5126,
			"count":2,
			"type":"VEC3"
		},
		{
			"bufferView":99,
			"componentType":5126,
			"count":2,
			"type":"VEC3"
		},
		{
			"bufferView":100,
			"componentType":5126,
			"count":91,
			"type":"VEC4"
		},
		{
			"bufferView":101,
			"componentType":5126,
			"count":2,
			"type":"VEC3"
		},
		{
			"bufferView":102,
			"componentType":5126,
			"count":2,
			"type":"VEC3"
		},
		{
			"bufferView":103,
			"componentType":5126,
			"count":91,
			"type":"VEC4"
		},
		{
			"bufferView":104,
			"componentType":5126,
			"count":2,
			"type":"VEC3"
		},
		{
			"bufferView":105,
			"componentType":5126,
			"count":2,
			"type":"VEC3"
		},
		{
			"bufferView":106,
			"componentType":5126,
			"count":91,
			"type":"VEC4"
		},
		{
			"bufferView":107,
			"componentType":5126,
			"count":2,
			"type":"VEC3"
		},
		{
			"bufferView":108,
			"componentType":5126,
			"count":2,
			"type":"VEC3"
		},
		{
			"bufferView":109,
			"componentType":5126,
			"count":91,
			"type":"VEC4"
		},
		{
			"bufferView":110,
			"componentType":5126,
			"count":2,
			"type":"VEC3"
		},
		{
			"bufferView":111,
			"componentType":5126,
			"count":2,
			"type":"VEC3"
		},
		{
			"bufferView":112,
			"componentType":5126,
			"count":91,
			"type":"VEC4"
		},
		{
			"bufferView":113,
			"componentType":5126,
			"count":2,
			"type":"VEC3"
		},
		{
			"bufferView":114,
			"componentType":5126,
			"count":2,
			"type":"VEC3"
		},
		{
			"bufferView":115,
			"componentType":5126,
			"count":91,
			"type":"VEC4"
		},
		{
			"bufferView":116,
			"componentType":5126,
			"count":2,
			"type":"VEC3"
		},
		{
			"bufferView":117,
			"componentType":5126,
			"count":2,
			"type":"VEC3"
		},
		{
			"bufferView":118,
			"componentType":5126,
			"count":91,
			"type":"VEC4"
		},
		{
			"bufferView":119,
			"componentType":5126,
			"count":2,
			"type":"VEC3"
		},
		{
			"bufferView":120,
			"componentType":5126,
			"count":2,
			"type":"VEC3"
		},
		{
			"bufferView":121,
			"componentType":5126,
			"count":91,
			"type":"VEC4"
		},
		{
			"bufferView":122,
			"componentType":5126,
			"count":2,
			"type":"VEC3"
		},
		{
			"bufferView":123,
			"componentType":5126,
			"count":2,
			"type":"VEC3"
		},
		{
			"bufferView":124,
			"componentType":5126,
			"count":91,
			"type":"VEC4"
		},
		{
			"bufferView":125,
			"componentType":5126,
			"count":2,
			"type":"VEC3"
		},
		{
			"bufferView":126,
			"componentType":5126,
			"count":2,
			"type":"VEC3"
		},
		{
			"bufferView":127,
			"componentType":5126,
			"count":91,
			"type":"VEC4"
		},
		{
			"bufferView":128,
			"componentType":5126,
			"count":2,
			"type":"VEC3"
		},
		{
			"bufferView":129,
			"componentType":5126,
			"count":2,
			"type":"VEC3"
		},
		{
			"bufferView":130,
			"componentType":5126,
			"count":91,
			"type":"VEC4"
		},
		{
			"bufferView":131,
			"componentType":5126,
			"count":2,
			"type":"VEC3"
		},
		{
			"bufferView":132,
			"componentType":5126,
			"count":2,
			"type":"VEC3"
		},
		{
			"bufferView":133,
			"componentType":5126,
			"count":91,
			"type":"VEC4"
		},
		{
			"bufferView":134,
			"componentType":5126,
			"count":2,
			"type":"VEC3"
		},
		{
			"bufferView":135,
			"componentType":5126,
			"count":2,
			"type":"VEC3"
		},
		{
			"bufferView":136,
			"componentType":5126,
			"count":2,
			"type":"VEC4"
		},
		{
			"bufferView":137,
			"componentType":5126,
			"count":2,
			"type":"VEC3"
		},
		{
			"bufferView":138,
			"componentType":5126,
			"count":2,
			"type":"VEC3"
		},
		{
			"bufferView":139,
			"componentType":5126,
			"count":2,
			"type":"VEC4"
		},
		{
			"bufferView":140,
			"componentType":5126,
			"count":2,
			"type":"VEC3"
		},
		{
			"bufferView":141,
			"componentType":5126,
			"count":45,
			"type":"MAT4"
		}
	],
	"bufferViews":[
		{
			"buffer":0,
			"byteLength":32808,
			"byteOffset":0,
			"target":34962
		},
		{
			"buffer":0,
			"byteLength":32808,
			"byteOffset":32808,
			"target":34962
		},
		{
			"buffer":0,
			"byteLength":21872,
			"byteOffset":65616,
			"target":34962
		},
		{
			"buffer":0,
			"byteLength":8208,
			"byteOffset":87488,
			"target":34963
		},
		{
			"buffer":0,
			"byteLength":8,
			"byteOffset":95696
		},
		{
			"buffer":0,
			"byteLength":24,
			"byteOffset":95704
		},
		{
			"buffer":0,
			"byteLength":32,
			"byteOffset":95728
		},
		{
			"buffer":0,
			"byteLength":24,
			"byteOffset":95760
		},
		{
			"buffer":0,
			"byteLength":24,
			"byteOffset":95784
		},
		{
			"buffer":0,
			"byteLength":32,
			"byteOffset":95808
		},
		{
			"buffer":0,
			"byteLength":24,
			"byteOffset":95840
		},
		{
			"buffer":0,
			"byteLength":24,
			"byteOffset":95864
		},
		{
			"buffer":0,
			"byteLength":32,
			"byteOffset":95888
		},
		{
			"buffer":0,
			"byteLength":24,
			"byteOffset":95920
		},
		{
			"buffer":0,
			"byteLength":24,
			"byteOffset":95944
		},
		{
			"buffer":0,
			"byteLength":364,
			"byteOffset":95968
		},
		{
			"buffer":0,
			"byteLength":1456,
			"byteOffset":96332
		},
		{
			"buffer":0,
			"byteLength":24,
			"byteOffset":97788
		},
		{
			"buffer":0,
			"byteLength":24,
			"byteOffset":97812
		},
		{
			"buffer":0,
			"byteLength":1456,
			"byteOffset":97836
		},
		{
			"buffer":0,
			"byteLength":24,
			"byteOffset":99292
		},
		{
			"buffer":0,
			"byteLength":24,
			"byteOffset":99316
		},
		{
			"buffer":0,
			"byteLength":1456,
			"byteOffset":99340
		},
		{
			"buffer":0,
			"byteLength":24,
			"byteOffset":100796
		},
		{
			"buffer":0,
			"byteLength":24,
			"byteOffset":100820
		},
		{
			"buffer":0,
			"byteLength":1456,
			"byteOffset":100844
		},
		{
			"buffer":0,
			"byteLength":24,
			"byteOffset":102300
		},
		{
			"buffer":0,
			"byteLength":24,
			"byteOffset":102324
		},
		{
			"buffer":0,
			"byteLength":32,
			"byteOffset":102348
		},
		{
			"buffer":0,
			"byteLength":24,
			"byteOffset":102380
		},
		{
			"buffer":0,
			"byteLength":24,
			"byteOffset":102404
		},
		{
			"buffer":0,
			"byteLength":32,
			"byteOffset":102428
		},
		{
			"buffer":0,
			"byteLength":24,
			"byteOffset":102460
		},
		{
			"buffer":0,
			"byteLength":24,
			"byteOffset":102484
		},
		{
			"buffer":0,
			"byteLength":32,
			"byteOffset":102508
		},
		{
			"buffer":0,
			"byteLength":24,
			"byteOffset":102540
		},
		{
			"buffer":0,
			"byteLength":24,
			"byteOffset":102564
		},
		{
			"buffer":0,
			"byteLength":32,
			"byteOffset":102588
		},
		{
			"buffer":0,
			"byteLength":24,
			"byteOffset":102620
		},
		{
			"buffer":0,
			"byteLength":24,
			"byteOffset":102644
		},
		{
			"buffer":0,
			"byteLength":32,
			"byteOffset":102668
		},
		{
			"buffer":0,
			"byteLength":24,
			"byteOffset":102700
		},
		{
			"buffer":0,
			"byteLength":24,
			"byteOffset":102724
		},
		{
			"buffer":0,
			"byteLength":32,
			"byteOffset":102748
		},
		{
			"buffer":0,
			"byteLength":24,
			"byteOffset":102780
		},
		{
			"buffer":0,
			"byteLength":24,
			"byteOffset":102804
		},
		{
			"buffer":0,
			"byteLength":32,
			"byteOffset":102828
		},
		{
			"buffer":0,
			"byteLength":24,
			"byteOffset":102860
		},
		{
			"buffer":0,
			"byteLength":24,
			"byteOffset":102884
		},
		{
			"buffer":0,
			"byteLength":32,
			"byteOffset":102908
		},
		{
			"buffer":0,
			"byteLength":24,
			"byteOffset":102940
		},
		{
			"buffer":0,
			"byteLength":24,
			"byteOffset":102964
		},
		{
			"buffer":0,
			"byteLength":32,
			"byteOffset":102988
		},
		{
			"buffer":0,
			"byteLength":24,
			"byteOffset":103020
		},
		{
			"buffer":0,
			"byteLength":24,
			"byteOffset":103044
		},
		{
			"buffer":0,
			"byteLength":32,
			"byteOffset":103068
		},
		{
			"buffer":0,
			"byteLength":24,
			"byteOffset":103100
		},
		{
			"buffer":0,
			"byteLength":24,
			"byteOffset":103124
		},
		{
			"buffer":0,
			"byteLength":32,
			"byteOffset":103148
		},
		{
			"buffer":0,
			"byteLength":24,
			"byteOffset":103180
		},
		{
			"buffer":0,
			"byteLength":24,
			"byteOffset":103204
		},
		{
			"buffer":0,
			"byteLength":32,
			"byteOffset":103228
		},
		{
			"buffer":0,
			"byteLength":24,
			"byteOffset":103260
		},
		{
			"buffer":0,
			"byteLength":24,
			"byteOffset":103284
		},
		{
			"buffer":0,
			"byteLength":32,
			"byteOffset":103308
		},
		{
			"buffer":0,
			"byteLength":24,
			"byteOffset":103340
		},
		{
			"buffer":0,
			"byteLength":24,
			"byteOffset":103364
		},
		{
			"buffer":0,
			"byteLength":32,
			"byteOffset":103388
		},
		{
			"buffer":0,
			"byteLength":24,
			"byteOffset":103420
		},
		{
			"buffer":0,
			"byteLength":24,
			"byteOffset":103444
		},
		{
			"buffer":0,
			"byteLength":32,
			"byteOffset":103468
		},
		{
			"buffer":0,
			"byteLength":24,
			"byteOffset":103500
		},
		{
			"buffer":0,
			"byteLength":24,
			"byteOffset":103524
		},
		{
			"buffer":0,
			"byteLength":1456,
			"byteOffset":103548
		},
		{
			"buffer":0,
			"byteLength":24,
			"byteOffset":105004
		},
		{
			"buffer":0,
			"byteLength":24,
			"byteOffset":105028
		},
		{
			"buffer":0,
			"byteLength":32,
			"byteOffset":105052
		},
		{
			"buffer":0,
			"byteLength":24,
			"byteOffset":105084
		},
		{
			"buffer":0,
			"byteLength":24,
			"byteOffset":105108
		},
		{
			"buffer":0,
			"byteLength":1456,
			"byteOffset":105132
		},
		{
			"buffer":0,
			"byteLength":24,
			"byteOffset":106588
		},
		{
			"buffer":0,
			"byteLength":24,
			"byteOffset":106612
		},
		{
			"buffer":0,
			"byteLength":1456,
			"byteOffset":106636
		},
		{
			"buffer":0,
			"byteLength":24,
			"byteOffset":108092
		},
		{
			"buffer":0,
			"byteLength":24,
			"byteOffset":108116
		},
		{
			"buffer":0,
			"byteLength":1456,
			"byteOffset":108140
		},
		{
			"buffer":0,
			"byteLength":24,
			"byteOffset":109596
		},
		{
			"buffer":0,
			"byteLength":24,
			"byteOffset":109620
		},
		{
			"buffer":0,
			"byteLength":1456,
			"byteOffset":109644
		},
		{
			"buffer":0,
			"byteLength":24,
			"byteOffset":111100
		},
		{
			"buffer":0,
			"byteLength":24,
			"byteOffset":111124
		},
		{
			"buffer":0,
			"byteLength":1456,
			"byteOffset":111148
		},
		{
			"buffer":0,
			"byteLength":24,
			"byteOffset":112604
		},
		{
			"buffer":0,
			"byteLength":24,
			"byteOffset":112628
		},
		{
			"buffer":0,
			"byteLength":1456,
			"byteOffset":112652
		},
		{
			"buffer":0,
			"byteLength":24,
			"byteOffset":114108
		},
		{
			"buffer":0,
			"byteLength":24,
			"byteOffset":114132
		},
		{
			"buffer":0,
			"byteLength":1456,
			"byteOffset":114156
		},
		{
			"buffer":0,
			"byteLength":24,
			"byteOffset":115612
		},
		{
			"buffer":0,
			"byteLength":24,
			"byteOffset":115636
		},
		{
			"buffer":0,
			"byteLength":1456,
			"byteOffset":115660
		},
		{
			"buffer":0,
			"byteLength":24,
			"byteOffset":117116
		},
		{
			"buffer":0,
			"byteLength":24,
			"byteOffset":117140
		},
		{
			"buffer":0,
			"byteLength":1456,
			"byteOffset":117164
		},
		{
			"buffer":0,
			"byteLength":24,
			"byteOffset":118620
		},
		{
			"buffer":0,
			"byteLength":24,
			"byteOffset":118644
		},
		{
			"buffer":0,
			"byteLength":1456,
			"byteOffset":118668
		},
		{
			"buffer":0,
			"byteLength":24,
			"byteOffset":120124
		},
		{
			"buffer":0,
			"byteLength":24,
			"byteOffset":120148
		},
		{
			"buffer":0,
			"byteLength":1456,
			"byteOffset":120172
		},
		{
			"buffer":0,
			"byteLength":24,
			"byteOffset":121628
		},
		{
			"buffer":0,
			"byteLength":24,
			"byteOffset":121652
		},
		{
			"buffer":0,
			"byteLength":1456,
			"byteOffset":121676
		},
		{
			"buffer":0,
			"byteLength":24,
			"byteOffset":123132
		},
		{
			"buffer":0,
			"byteLength":24,
			"byteOffset":123156
		},
		{
			"buffer":0,
			"byteLength":1456,
			"byteOffset":123180
		},
		{
			"buffer":0,
			"byteLength":24,
			"byteOffset":124636
		},
		{
			"buffer":0,
			"byteLength":24,
			"byteOffset":124660
		},
		{
			"buffer":0,
			"byteLength":1456,
			"byteOffset":124684
		},
		{
			"buffer":0,
			"byteLength":24,
			"byteOffset":126140
		},
		{
			"buffer":0,
			"byteLength":24,
			"byteOffset":126164
		},
		{
			"buffer":0,
			"byteLength":1456,
			"byteOffset":126188
		},
		{
			"buffer":0,
			"byteLength":24,
			"byteOffset":127644
		},
		{
			"buffer":0,
			"byteLength":24,
			"byteOffset":127668
		},
		{
			"buffer":0,
			"byteLength":1456,
			"byteOffset":127692
		},
		{
			"buffer":0,
			"byteLength":24,
			"byteOffset":129148
		},
		{
			"buffer":0,
			"byteLength":24,
			"byteOffset":129172
		},
		{
			"buffer":0,
			"byteLength":1456,
			"byteOffset":129196
		},
		{
			"buffer":0,
			"byteLength":24,
			"byteOffset":130652
		},
		{
			"buffer":0,
			"byteLength":24,
			"byteOffset":130676
		},
		{
			"buffer":0,
			"byteLength":1456,
			"byteOffset":130700
		},
		{
			"buffer":0,
			"byteLength":24,
			"byteOffset":132156
		},
		{
			"buffer":0,
			"byteLength":24,
			"byteOffset":132180
		},
		{
			"buffer":0,
			"byteLength":1456,
			"byteOffset":132204
		},
		{
			"buffer":0,
			"byteLength":24,
			"byteOffset":133660
		},
		{
			"buffer":0,
			"byteLength":24,
			"byteOffset":133684
		},
		{
			"buffer":0,
			"byteLength":32,
			"byteOffset":133708
		},
		{
			"buffer":0,
			"byteLength":24,
			"byteOffset":133740
		},
		{
			"buffer":0,
			"byteLength":24,
			"byteOffset":133764
		},
		{
			"buffer":0,
			"byteLength":32,
			"byteOffset":133788
		},
		{
			"buffer":0,
			"byteLength":24,
			"byteOffset":133820
		},
		{
			"buffer":0,
			"byteLength":2880,
			"byteOffset":133844
		}
	],
	"buffers":[
		{
			"byteLength":136724,
			"uri":"data:application/octet-stream;base64,"
		}
	]
}
